# xmcd CD database file
#
# Track frame offsets:
#	150
#	23100
#	43200
#	66150
#
# Disc length: 1145 seconds
#
# Revision: 0
# Processed by: cddbd v1.5.1PL0 Copyright (c) Steve Scherf et al.
# Submitted via: CDex 1.51
#
DISCID=31047704
DTITLE=HOUND DOG - さよならの向こうに
DYEAR=1900
DGENRE=Rock
TTITLE0=さよならの向こうに
TTITLE1=Shining
TTITLE2=さよならの向こうに(Original Karaoke)
TTITLE3=SHINING(Original Karaoke)
EXTD=
EXTT0=
EXTT1=
EXTT2=
EXTT3=
PLAYORDER=
